<svg xmlns="http://www.w3.org/2000/svg" viewBox="-80 -5 640 560">
  <defs>
    <clipPath id="f-ll"><polygon points="0 0, 37.5 -64.95, 440 -64.95, 477.5 0, 440 64.95, 37.5 64.95" /></clipPath>
    <clipPath id="f-ap"><polygon points="0 0, 37.5 -64.95, 112.5 -64.95, 150 0, 112.5 64.95, 37.5 64.95" /></clipPath>
    <clipPath id="f-rl"><polygon points="0 0, 37.5 -64.95, 296 -64.95, 258.5 0, 221 64.95, 37.5 64.95" /></clipPath>
    <clipPath id="f-bb"><polygon points="0 0, 37.5 -64.95, 367.5 -64.95, 330 0, 292.5 64.95, 37.5 64.95" /></clipPath>
  </defs>
  <g transform="translate(37.5, 415) rotate(120)">
    <polygon fill="hsl(0 85% 62%)"  points="0 0, 37.5 64.95, 105 64.95, 105 0" />
    <polygon fill="hsl(45 90% 55%)" points="0 0, 37.5 -64.95, 105 -64.95, 105 0" />
  </g>
  <g transform="translate(441.5, 415) rotate(60)">
    <polygon fill="hsl(210 90% 62%)" points="0 0, 37.5 -64.95, 105 -64.95, 105 0" />
    <polygon fill="hsl(0 85% 62%)"   points="0 0, 37.5 64.95, 105 64.95, 105 0" />
  </g>
  <g transform="translate(37.5, 415) rotate(-60)" clip-path="url(#f-ll)">
    <polygon fill="hsl(0 85% 62%)"  points="0 0, 0 -64.95, 480 -64.95, 480 0" />
    <polygon fill="hsl(45 90% 55%)" points="0 0, 0 64.95, 480 64.95, 480 0" />
  </g>
  <g transform="translate(202, 0) rotate(60)" clip-path="url(#f-ap)">
    <polygon fill="hsl(210 90% 62%)" points="0 0, 0 -64.95, 112.5 -64.95, 112.5 0" />
    <polygon fill="hsl(0 85% 62%)"   points="0 0, 0 64.95, 112.5 64.95, 112.5 0" />
    <polygon fill="hsl(45 90% 55%)"  points="112.5 64.95, 75 0, 112.5 -64.95, 150 0" />
  </g>
  <g transform="translate(202, 0) rotate(60) translate(72, 0)" clip-path="url(#f-rl)">
    <polygon fill="hsl(210 90% 62%)" points="0 0, 0 -64.95, 294 -64.95, 294 0" />
    <polygon fill="hsl(0 85% 62%)"   points="0 0, 0 64.95, 294 64.95, 294 0" />
  </g>
  <g transform="translate(277, 0) rotate(60) translate(404) rotate(120)" clip-path="url(#f-bb)">
    <polygon fill="hsl(45 90% 55%)"  points="0 0, 0 -64.95, 366.5 -64.95, 366.5 0" />
    <polygon fill="hsl(210 90% 62%)" points="0 0, 0 64.95, 366.5 64.95, 366.5 0" />
  </g>
</svg>
